HIERARCHY
ROOT hip
{
  OFFSET 5.51535 103.731 -2.80141
  CHANNELS 6 Xposition Yposition Zposition Zrotation Xrotation Yrotation
  JOINT abdomen
  {
    OFFSET 0 -1.186 -1.5018
    CHANNELS 6 Xposition Yposition Zposition Zrotation Xrotation Yrotation
    JOINT abdomen2
    {
      OFFSET 0 9.964 0.2134
      CHANNELS 6 Xposition Yposition Zposition Zrotation Xrotation Yrotation
      JOINT chest
      {
        OFFSET 0 13.134 -3.2573
        CHANNELS 6 Xposition Yposition Zposition Zrotation Xrotation Yrotation
        JOINT neck
        {
          OFFSET 0 20.686 -1.6905
          CHANNELS 6 Xposition Yposition Zposition Zrotation Xrotation Yrotation
          JOINT head
          {
            OFFSET 0 7.23801 -0.1237
            CHANNELS 6 Xposition Yposition Zposition Zrotation Xrotation Yrotation
            End Site
            {
              OFFSET 0 0 0
            }
          }
        }
        JOINT lCollar
        {
          OFFSET 1.7069 20.075 5.0056
          CHANNELS 6 Xposition Yposition Zposition Zrotation Xrotation Yrotation
          JOINT lShldr
          {
            OFFSET 13.6458 -0.0470195 -4.849
            CHANNELS 6 Xposition Yposition Zposition Zrotation Xrotation Yrotation
            JOINT lForeArm
            {
              OFFSET 28.3255 -0.97589 2.2888
              CHANNELS 6 Xposition Yposition Zposition Zrotation Xrotation Yrotation
              JOINT lHand
              {
                OFFSET 22.1583 -0.529998 10.8316
                CHANNELS 6 Xposition Yposition Zposition Zrotation Xrotation Yrotation
                JOINT lThumb1
                {
                  OFFSET 0.786 0.111997 2.5817
                  CHANNELS 6 Xposition Yposition Zposition Zrotation Xrotation Yrotation
                  JOINT lThumb2
                  {
                    OFFSET 0.360097 -0.877999 4.2331
                    CHANNELS 6 Xposition Yposition Zposition Zrotation Xrotation Yrotation
                    JOINT lThumb2_End
                    {
                      OFFSET 1.8127 -1.21601 2.2227
                      CHANNELS 6 Xposition Yposition Zposition Zrotation Xrotation Yrotation
                      End Site
                      {
                        OFFSET 0.0180981 -0.012195 0.0222007
                      }
                    }
                  }
                }
                JOINT lCarpal1
                {
                  OFFSET 0.9571 1.114 1.7695
                  CHANNELS 6 Xposition Yposition Zposition Zrotation Xrotation Yrotation
                  JOINT lIndex1
                  {
                    OFFSET 4.12461 0.486992 4.1451
                    CHANNELS 6 Xposition Yposition Zposition Zrotation Xrotation Yrotation
                    JOINT lIndex2
                    {
                      OFFSET 3.4052 -1.45401 2.7682
                      CHANNELS 6 Xposition Yposition Zposition Zrotation Xrotation Yrotation
                      JOINT lIndex2_End
                      {
                        OFFSET 1.45309 -1.79499 1.2713
                        CHANNELS 6 Xposition Yposition Zposition Zrotation Xrotation Yrotation
                        End Site
                        {
                          OFFSET 0.0144979 -0.0179083 0.0126995
                        }
                      }
                    }
                  }
                  JOINT lMid1
                  {
                    OFFSET 5.6954 0.209987 2.1184
                    CHANNELS 6 Xposition Yposition Zposition Zrotation Xrotation Yrotation
                    JOINT lMid2
                    {
                      OFFSET 3.9766 -1.53999 2.3863
                      CHANNELS 6 Xposition Yposition Zposition Zrotation Xrotation Yrotation
                      JOINT lMid2_End
                      {
                        OFFSET 1.4042 -1.926 1.125
                        CHANNELS 6 Xposition Yposition Zposition Zrotation Xrotation Yrotation
                        End Site
                        {
                          OFFSET 0.013999 -0.0193044 0.011301
                        }
                      }
                    }
                  }
                }
                JOINT lCarpal2
                {
                  OFFSET 2.0956 0.66 -0.3894
                  CHANNELS 6 Xposition Yposition Zposition Zrotation Xrotation Yrotation
                  JOINT lRing1
                  {
                    OFFSET 5.0395 -0.090013 2.4971
                    CHANNELS 6 Xposition Yposition Zposition Zrotation Xrotation Yrotation
                    JOINT lRing2
                    {
                      OFFSET 3.7921 -1.55199 1.4806
                      CHANNELS 6 Xposition Yposition Zposition Zrotation Xrotation Yrotation
                      JOINT lRing2_End
                      {
                        OFFSET 1.4655 -1.808 0.9609
                        CHANNELS 6 Xposition Yposition Zposition Zrotation Xrotation Yrotation
                        End Site
                        {
                          OFFSET 0.0147015 -0.0181014 0.00959957
                        }
                      }
                    }
                  }
                  JOINT lPinky1
                  {
                    OFFSET 4.9141 -1.269 0.3591
                    CHANNELS 6 Xposition Yposition Zposition Zrotation Xrotation Yrotation
                    JOINT lPinky2
                    {
                      OFFSET 3.1477 -1.685 0.8462
                      CHANNELS 6 Xposition Yposition Zposition Zrotation Xrotation Yrotation
                      JOINT lPinky2_End
                      {
                        OFFSET 0.805498 -1.58501 0.795499
                        CHANNELS 6 Xposition Yposition Zposition Zrotation Xrotation Yrotation
                        End Site
                        {
                          OFFSET 0.00809703 -0.0157944 0.00799848
                        }
                      }
                    }
                  }
                }
              }
            }
          }
        }
        JOINT rCollar
        {
          OFFSET -1.7069 20.075 5.0056
          CHANNELS 6 Xposition Yposition Zposition Zrotation Xrotation Yrotation
          JOINT rShldr
          {
            OFFSET -13.6458 -0.0470107 -4.849
            CHANNELS 6 Xposition Yposition Zposition Zrotation Xrotation Yrotation
            JOINT rForeArm
            {
              OFFSET -28.3255 -0.975895 2.2888
              CHANNELS 6 Xposition Yposition Zposition Zrotation Xrotation Yrotation
              JOINT rHand
              {
                OFFSET -22.1583 -0.530007 10.8316
                CHANNELS 6 Xposition Yposition Zposition Zrotation Xrotation Yrotation
                JOINT rThumb1
                {
                  OFFSET -0.785997 0.112005 2.5817
                  CHANNELS 6 Xposition Yposition Zposition Zrotation Xrotation Yrotation
                  JOINT rThumb2
                  {
                    OFFSET -0.360106 -0.877994 4.2331
                    CHANNELS 6 Xposition Yposition Zposition Zrotation Xrotation Yrotation
                    JOINT rThumb2_End
                    {
                      OFFSET -1.8127 -1.216 2.2227
                      CHANNELS 6 Xposition Yposition Zposition Zrotation Xrotation Yrotation
                      End Site
                      {
                        OFFSET -0.0180972 -0.0121973 0.0222005
                      }
                    }
                  }
                }
                JOINT rCarpal1
                {
                  OFFSET -0.9571 1.114 1.7695
                  CHANNELS 6 Xposition Yposition Zposition Zrotation Xrotation Yrotation
                  JOINT rIndex1
                  {
                    OFFSET -4.1246 0.487011 4.1451
                    CHANNELS 6 Xposition Yposition Zposition Zrotation Xrotation Yrotation
                    JOINT rIndex2
                    {
                      OFFSET -3.4052 -1.45401 2.7682
                      CHANNELS 6 Xposition Yposition Zposition Zrotation Xrotation Yrotation
                      JOINT rIndex2_End
                      {
                        OFFSET -1.4531 -1.795 1.2713
                        CHANNELS 6 Xposition Yposition Zposition Zrotation Xrotation Yrotation
                        End Site
                        {
                          OFFSET -0.0145077 -0.0180048 0.0127017
                        }
                      }
                    }
                  }
                  JOINT rMid1
                  {
                    OFFSET -5.6954 0.210002 2.1184
                    CHANNELS 6 Xposition Yposition Zposition Zrotation Xrotation Yrotation
                    JOINT rMid2
                    {
                      OFFSET -3.9766 -1.54 2.3863
                      CHANNELS 6 Xposition Yposition Zposition Zrotation Xrotation Yrotation
                      JOINT rMid2_End
                      {
                        OFFSET -1.4042 -1.926 1.125
                        CHANNELS 6 Xposition Yposition Zposition Zrotation Xrotation Yrotation
                        End Site
                        {
                          OFFSET -0.0139948 -0.0192916 0.0112994
                        }
                      }
                    }
                  }
                }
                JOINT rCarpal2
                {
                  OFFSET -2.0956 0.66 -0.3894
                  CHANNELS 6 Xposition Yposition Zposition Zrotation Xrotation Yrotation
                  JOINT rRing1
                  {
                    OFFSET -5.03951 -0.0899879 2.4971
                    CHANNELS 6 Xposition Yposition Zposition Zrotation Xrotation Yrotation
                    JOINT rRing2
                    {
                      OFFSET -3.7921 -1.55201 1.4806
                      CHANNELS 6 Xposition Yposition Zposition Zrotation Xrotation Yrotation
                      JOINT rRing2_End
                      {
                        OFFSET -1.4655 -1.808 0.960901
                        CHANNELS 6 Xposition Yposition Zposition Zrotation Xrotation Yrotation
                        End Site
                        {
                          OFFSET -0.0146934 -0.0180999 0.00959832
                        }
                      }
                    }
                  }
                  JOINT rPinky1
                  {
                    OFFSET -4.91411 -1.26899 0.359202
                    CHANNELS 6 Xposition Yposition Zposition Zrotation Xrotation Yrotation
                    JOINT rPinky2
                    {
                      OFFSET -3.14769 -1.68501 0.846199
                      CHANNELS 6 Xposition Yposition Zposition Zrotation Xrotation Yrotation
                      JOINT rPinky2_End
                      {
                        OFFSET -0.805498 -1.585 0.7955
                        CHANNELS 6 Xposition Yposition Zposition Zrotation Xrotation Yrotation
                        End Site
                        {
                          OFFSET -0.00810035 -0.0158035 0.00800029
                        }
                      }
                    }
                  }
                }
              }
            }
          }
        }
      }
    }
  }
  JOINT lThigh
  {
    OFFSET 8.367 -8.2066 0.5982
    CHANNELS 6 Xposition Yposition Zposition Zrotation Xrotation Yrotation
    JOINT lShin
    {
      OFFSET 2.1923 -43.463 -0.4932
      CHANNELS 6 Xposition Yposition Zposition Zrotation Xrotation Yrotation
      JOINT lFoot
      {
        OFFSET 0.733301 -45.8593 -2.6451
        CHANNELS 6 Xposition Yposition Zposition Zrotation Xrotation Yrotation
        End Site
        {
          OFFSET 2.6618 -4.2699 12.3931
        }
      }
    }
  }
  JOINT rThigh
  {
    OFFSET -8.367 -8.2066 0.5982
    CHANNELS 6 Xposition Yposition Zposition Zrotation Xrotation Yrotation
    JOINT rShin
    {
      OFFSET -2.1923 -43.463 -0.4931
      CHANNELS 6 Xposition Yposition Zposition Zrotation Xrotation Yrotation
      JOINT rFoot
      {
        OFFSET -0.733299 -45.8593 -2.6451
        CHANNELS 6 Xposition Yposition Zposition Zrotation Xrotation Yrotation
        End Site
        {
          OFFSET -2.6618 -4.2699 12.3931
        }
      }
    }
  }
}
MOTION
Frames:	4
Frame Time:	0.0333333
-7.37234 102.333 -4.67795 3.79865 -4.60249 -3.55088 -3.49811e-008 -1.186 -1.5018 -2.18696 0.540418 -0.542361 -8.22852e-008 9.964 0.2134 -4.36903 1.10116 -1.06376 -3.53599e-008 13.134 -3.2573 -4.36903 1.10116 -1.06376 2.61948e-005 20.6861 -1.69051 6.02747 -0.606394 -1.10696 2.42412e-007 7.23801 -0.1237 -1.86101 2.81196 -3.18035 1.7069 20.075 5.0056 3.53096 0.526981 3.41025 13.6458 -0.0470188 -4.849 -78.4851 -8.26833 10.6222 28.3255 -0.975897 2.2888 -32.072 -1.48731 -91.2852 22.1583 -0.529976 10.8316 -15.6511 -43.0512 -26.1387 0.786004 0.111995 2.5817 -1.44057 -0.139329 -2.63688 0.360099 -0.877995 4.2331 -1.44115 -0.139527 -2.63675 1.8127 -1.21601 2.2227 -1.44083 -0.139471 -2.63656 0.9571 1.114 1.7695 -2.98177e-015 -2.13694e-015 -0 4.1246 0.48699 4.1451 21.6018 -11.3139 -7.05118 3.4052 -1.45401 2.7682 4.7806 -2.21513 -1.87801 1.4531 -1.79499 1.2713 4.77947 -2.21488 -1.87804 5.6954 0.209987 2.1184 27.5494 -16.2976 -8.12566 3.9766 -1.53999 2.3863 4.68927 -2.40701 -1.86787 1.4042 -1.926 1.125 4.68942 -2.40685 -1.86813 2.0956 0.66 -0.3894 -2.98177e-015 -2.13694e-015 -0 5.0395 -0.0900111 2.4971 26.9234 -18.2416 -6.86216 3.7921 -1.55199 1.4806 4.53333 -2.52348 -2.07614 1.4655 -1.808 0.960899 4.53365 -2.52368 -2.07596 4.9141 -1.269 0.359104 29.0363 -20.5266 0.342571 3.1477 -1.685 0.846202 4.48036 -2.66348 -2.01541 0.805499 -1.58501 0.795499 4.46761 -2.67968 -2.01849 -1.7069 20.075 5.0056 2.63825 0.132965 3.32271 -13.6458 -0.0470092 -4.849 84.1275 -7.32415 -11.8462 -28.3255 -0.975897 2.2888 3.26093 -11.4583 13.0231 -22.1583 -0.530008 10.8316 -7.38282 3.72702 5.8049 -0.786003 0.112004 2.5817 -0.888024 0.807407 -2.75022 -0.360103 -0.877992 4.23311 -0.888527 0.807545 -2.75018 -1.8127 -1.216 2.2227 -0.888256 0.807411 -2.74995 -0.9571 1.114 1.7695 0 0 -2.38542e-015 -4.12461 0.487008 4.1451 5.30226 1.7291 -0.822998 -3.4052 -1.45401 2.7682 5.30085 1.72855 -0.822715 -1.4531 -1.795 1.2713 5.29972 1.72837 -0.822988 -5.6954 0.210002 2.1184 5.23422 1.92975 -0.8058 -3.9766 -1.54 2.3863 5.23482 1.93045 -0.806065 -1.4042 -1.92599 1.125 5.23499 1.9302 -0.806303 -2.0956 0.66 -0.3894 0 0 -2.38542e-015 -5.03951 -0.0899875 2.4971 5.14131 2.08262 -1.01772 -3.79209 -1.55201 1.4806 5.14321 2.08361 -1.01876 -1.4655 -1.808 0.960901 5.14349 2.08376 -1.01854 -4.91411 -1.26899 0.359202 5.09462 2.22409 -0.951025 -3.1477 -1.68501 0.846199 5.09698 2.22496 -0.95168 -0.8055 -1.585 0.7955 5.09635 2.22488 -0.951557 8.367 -8.20661 0.598201 -11.5037 7.96826 -5.17933 2.19231 -43.4631 -0.493202 0.125267 0.693076 0.527939 0.733302 -45.8593 -2.6451 7.52219 -3.70188 10.3744 -8.36701 -8.20662 0.5982 -12.0117 -8.2753 -3.11069 -2.1923 -43.463 -0.493096 0.781875 9.45351 -0.0527163 -0.733299 -45.8594 -2.64511 9.59476 2.72345 -6.90582 
-7.37198 102.327 -4.64768 3.79132 -4.62517 -3.5501 -1.39974e-007 -1.18599 -1.50181 -2.16615 0.492629 -0.561001 2.96504e-007 9.964 0.213401 -4.32762 1.00613 -1.10304 1.3816e-007 13.134 -3.2573 -4.32762 1.00613 -1.10304 5.66012e-006 20.686 -1.6905 6.33282 -0.567162 -0.0258774 7.23929e-007 7.23801 -0.1237 -1.81037 2.78338 -2.0324 1.7069 20.075 5.0056 3.35852 0.434286 3.36799 13.6458 -0.0470074 -4.84901 -78.2866 -8.29696 10.8146 28.3255 -0.975895 2.2888 -32.0801 -1.15913 -90.7275 22.1583 -0.529989 10.8316 -16.1736 -42.8193 -25.3526 0.786003 0.112 2.5817 -1.44057 -0.139331 -2.63687 0.360098 -0.877996 4.2331 -1.44117 -0.139542 -2.63675 1.8127 -1.21601 2.2227 -1.44085 -0.139489 -2.63655 0.9571 1.114 1.7695 -2.5842e-015 1.68967e-015 -3.18055e-015 4.1246 0.486994 4.1451 21.6018 -11.3139 -7.05119 3.4052 -1.454 2.7682 4.78059 -2.21513 -1.87799 1.4531 -1.79499 1.2713 4.77947 -2.21488 -1.87805 5.6954 0.20999 2.1184 27.5494 -16.2976 -8.12566 3.9766 -1.53999 2.3863 4.68926 -2.40703 -1.86784 1.4042 -1.926 1.125 4.68942 -2.40691 -1.86809 2.0956 0.66 -0.3894 -2.5842e-015 1.68967e-015 -3.18055e-015 5.0395 -0.0900119 2.4971 26.9234 -18.2416 -6.86215 3.7921 -1.55199 1.4806 4.53332 -2.52352 -2.07611 1.4655 -1.808 0.9609 4.53364 -2.52362 -2.07606 4.9141 -1.269 0.3591 29.0363 -20.5266 0.34258 3.1477 -1.685 0.846201 4.4804 -2.66339 -2.01548 0.8055 -1.585 0.795499 4.46803 -2.67912 -2.01838 -1.7069 20.075 5.0056 2.77406 0.107997 3.32041 -13.6458 -0.0470183 -4.849 83.965 -7.34829 -11.8871 -28.3255 -0.975906 2.2888 3.27053 -11.3791 13.0461 -22.1583 -0.530007 10.8316 -7.37436 3.73618 5.74082 -0.785998 0.112006 2.5817 -0.888015 0.807385 -2.75022 -0.360108 -0.877993 4.2331 -0.888519 0.807551 -2.75017 -1.8127 -1.216 2.2227 -0.888274 0.807406 -2.74994 -0.9571 1.114 1.7695 -8.82781e-032 -6.36111e-015 -7.95139e-016 -4.1246 0.487012 4.1451 5.30224 1.72911 -0.823004 -3.4052 -1.45401 2.7682 5.30084 1.72855 -0.822711 -1.45309 -1.795 1.2713 5.29971 1.72838 -0.822983 -5.6954 0.210004 2.1184 5.2342 1.92976 -0.805811 -3.9766 -1.54 2.3863 5.23479 1.93049 -0.806045 -1.4042 -1.926 1.125 5.23498 1.93022 -0.806289 -2.0956 0.66 -0.3894 -8.82781e-032 -6.36111e-015 -7.95139e-016 -5.03951 -0.089988 2.4971 5.14129 2.08262 -1.01772 -3.7921 -1.55201 1.4806 5.14321 2.08361 -1.01877 -1.4655 -1.80801 0.9609 5.14349 2.08376 -1.01854 -4.91411 -1.26899 0.359203 5.09457 2.22415 -0.951019 -3.14769 -1.68501 0.846198 5.09699 2.22497 -0.951685 -0.805503 -1.585 0.795499 5.09633 2.22489 -0.951546 8.367 -8.2066 0.598202 -11.4977 7.98502 -5.10208 2.1923 -43.463 -0.493203 0.124458 0.74954 0.526742 0.733299 -45.8593 -2.6451 7.5444 -3.81506 10.3105 -8.367 -8.20659 0.598202 -12.0127 -8.26466 -3.10376 -2.1923 -43.4631 -0.493101 0.791117 9.52021 -0.0632101 -0.733303 -45.8593 -2.6451 9.59232 2.67094 -6.8914 
-7.37113 102.321 -4.6275 3.78277 -4.64208 -3.5322 -1.64404e-007 -1.18599 -1.5018 -2.14759 0.448017 -0.583344 5.29112e-008 9.964 0.2134 -4.29072 0.917586 -1.14954 7.94722e-008 13.134 -3.2573 -4.29072 0.917585 -1.14954 -1.3114e-005 20.6863 -1.69052 6.59316 -0.648688 1.13612 -1.11671e-006 7.23801 -0.1237 -1.77676 2.60169 -0.83405 1.7069 20.075 5.0056 3.26191 0.372342 3.33211 13.6458 -0.0470095 -4.849 -78.2152 -8.29383 10.9734 28.3255 -0.975891 2.2888 -32.0828 -0.838198 -90.2164 22.1583 -0.529985 10.8316 -16.5386 -42.5822 -24.5377 0.786005 0.111999 2.5817 -1.44056 -0.139334 -2.63687 0.360099 -0.878001 4.2331 -1.4412 -0.139569 -2.63674 1.8127 -1.21601 2.2227 -1.44086 -0.139537 -2.63654 0.9571 1.114 1.7695 1.59028e-015 1.98785e-016 -6.36111e-015 4.12461 0.486995 4.1451 21.6018 -11.3139 -7.05119 3.4052 -1.45401 2.7682 4.78059 -2.21513 -1.87799 1.4531 -1.79499 1.2713 4.77947 -2.21488 -1.87804 5.6954 0.209991 2.1184 27.5494 -16.2976 -8.12565 3.9766 -1.53999 2.3863 4.68924 -2.40713 -1.8678 1.4042 -1.92599 1.125 4.68942 -2.40681 -1.86819 2.0956 0.66 -0.3894 1.59028e-015 1.98785e-016 -6.36111e-015 5.03951 -0.090011 2.4971 26.9234 -18.2417 -6.86214 3.7921 -1.55199 1.4806 4.53331 -2.52361 -2.07606 1.4655 -1.808 0.9609 4.53364 -2.52362 -2.07605 4.9141 -1.269 0.359102 29.0363 -20.5267 0.342573 3.1477 -1.685 0.846201 4.48039 -2.66339 -2.01548 0.805498 -1.58501 0.7955 4.46845 -2.67855 -2.01827 -1.7069 20.075 5.0056 2.91735 0.0838978 3.31123 -13.6458 -0.047016 -4.849 83.8 -7.37078 -11.9158 -28.3255 -0.975894 2.2888 3.27983 -11.2973 13.0746 -22.1583 -0.53001 10.8316 -7.33847 3.72246 5.66583 -0.786003 0.112005 2.5817 -0.888008 0.80736 -2.75021 -0.360103 -0.877991 4.2331 -0.888518 0.807571 -2.75016 -1.8127 -1.216 2.2227 -0.888265 0.807407 -2.74995 -0.9571 1.114 1.7695 5.96354e-016 3.18055e-015 -7.95139e-016 -4.12461 0.487013 4.1451 5.30223 1.72915 -0.823002 -3.4052 -1.45401 2.7682 5.30085 1.72855 -0.822703 -1.4531 -1.79499 1.2713 5.29971 1.72838 -0.822988 -5.6954 0.210002 2.1184 5.23422 1.92978 -0.805804 -3.9766 -1.54 2.3863 5.23475 1.93059 -0.806006 -1.4042 -1.926 1.125 5.23497 1.93024 -0.806268 -2.0956 0.66 -0.3894 5.96354e-016 3.18055e-015 -7.95139e-016 -5.03951 -0.089988 2.4971 5.14129 2.08264 -1.01773 -3.7921 -1.55201 1.4806 5.14321 2.08361 -1.01875 -1.4655 -1.808 0.960901 5.14347 2.08375 -1.01854 -4.91411 -1.26899 0.359202 5.09463 2.224 -0.951003 -3.14769 -1.68501 0.8462 5.09697 2.22497 -0.951666 -0.805503 -1.585 0.795499 5.09633 2.22492 -0.951522 8.36701 -8.20661 0.598201 -11.4903 7.96729 -5.00911 2.1923 -43.4631 -0.4932 0.122472 0.852179 0.522561 0.733299 -45.8594 -2.64511 7.57393 -3.96166 10.2185 -8.36701 -8.20661 0.5982 -12.012 -8.26254 -3.08389 -2.1923 -43.463 -0.493103 0.801145 9.59008 -0.0908637 -0.7333 -45.8593 -2.6451 9.59187 2.61889 -6.89114 
-7.3701 102.313 -4.60881 3.77423 -4.67264 -3.51473 -6.83304e-007 -1.186 -1.5018 -2.1318 0.402245 -0.603435 2.76345e-007 9.964 0.2134 -4.25942 0.826705 -1.19151 2.91355e-008 13.134 -3.2573 -4.25942 0.826705 -1.19151 1.09883e-006 20.6862 -1.69053 6.81571 -0.831654 2.35076 5.65011e-007 7.23801 -0.123702 -1.75166 2.42407 0.385028 1.7069 20.075 5.0056 3.24468 0.349971 3.31871 13.6458 -0.0470077 -4.849 -78.2433 -8.25211 11.1267 28.3255 -0.975902 2.2888 -32.0771 -0.515174 -89.7438 22.1583 -0.529986 10.8316 -16.7489 -42.372 -23.6915 0.786004 0.111994 2.5817 -1.44058 -0.139341 -2.63686 0.360098 -0.877997 4.2331 -1.44126 -0.139629 -2.6367 1.8127 -1.21601 2.2227 -1.4409 -0.139609 -2.63654 0.9571 1.114 1.7695 2.09661e-031 3.77691e-015 -3.18055e-015 4.12461 0.486993 4.14511 21.6018 -11.314 -7.05116 3.4052 -1.45401 2.7682 4.78058 -2.21515 -1.87799 1.4531 -1.79499 1.2713 4.77948 -2.21488 -1.87804 5.69541 0.209989 2.1184 27.5494 -16.2977 -8.12562 3.9766 -1.53999 2.3863 4.68929 -2.40696 -1.8679 1.4042 -1.926 1.125 4.68942 -2.40681 -1.86819 2.0956 0.66 -0.3894 2.09661e-031 3.77691e-015 -3.18055e-015 5.0395 -0.0900128 2.4971 26.9234 -18.2417 -6.86214 3.7921 -1.55199 1.4806 4.53335 -2.52343 -2.07617 1.4655 -1.808 0.960901 4.53364 -2.52362 -2.07606 4.9141 -1.269 0.359103 29.0363 -20.5267 0.342589 3.1477 -1.685 0.846199 4.48039 -2.66339 -2.01548 0.805499 -1.585 0.795499 4.46888 -2.67799 -2.01816 -1.7069 20.075 5.0056 3.04632 0.0602884 3.31222 -13.6458 -0.0470097 -4.84901 83.669 -7.41131 -11.9954 -28.3255 -0.975893 2.2888 3.27061 -11.2246 13.067 -22.1583 -0.530009 10.8316 -7.3101 3.69412 5.63724 -0.785999 0.112006 2.5817 -0.887982 0.807304 -2.75021 -0.360102 -0.877994 4.2331 -0.888581 0.807603 -2.75014 -1.81269 -1.216 2.2227 -0.888265 0.807412 -2.74995 -0.9571 1.114 1.7695 -1.59028e-015 3.18055e-015 -1.59028e-015 -4.1246 0.487011 4.1451 5.3022 1.72921 -0.823012 -3.4052 -1.45401 2.7682 5.30084 1.72856 -0.822716 -1.4531 -1.795 1.2713 5.29972 1.72839 -0.822985 -5.6954 0.210004 2.1184 5.2342 1.92982 -0.805815 -3.9766 -1.54 2.3863 5.23482 1.9304 -0.806082 -1.4042 -1.926 1.125 5.23497 1.9303 -0.80624 -2.0956 0.66 -0.3894 -1.59028e-015 3.18055e-015 -1.59028e-015 -5.03951 -0.089987 2.4971 5.14129 2.08268 -1.01773 -3.7921 -1.55201 1.4806 5.1432 2.08362 -1.01875 -1.4655 -1.808 0.9609 5.14349 2.08376 -1.01853 -4.91411 -1.26899 0.359202 5.09463 2.22399 -0.950993 -3.1477 -1.68501 0.846199 5.09696 2.22499 -0.951666 -0.805501 -1.585 0.7955 5.09634 2.22497 -0.95146 8.367 -8.2066 0.5982 -11.487 7.98652 -5.01302 2.1923 -43.463 -0.4932 0.127209 0.906771 0.547245 0.733302 -45.8593 -2.6451 7.563 -4.00472 10.1911 -8.36701 -8.2066 0.5982 -12.0179 -8.24557 -3.0901 -2.1923 -43.463 -0.493101 0.817936 9.65644 -0.104105 -0.7333 -45.8593 -2.6451 9.58569 2.5717 -6.87792 
